<svg width="320" height="111" viewBox="0 0 320 111" fill="none" xmlns="http://www.w3.org/2000/svg">
<path d="M40.712 109C39.048 106.44 37.128 103.752 34.952 100.936C32.776 98.12 30.472 95.4 28.04 92.776C25.672 90.152 23.208 87.656 20.648 85.288C18.088 82.92 15.56 80.872 13.064 79.144V109H0.968002V42.472H13.064V69.928C15.176 67.816 17.384 65.576 19.688 63.208C21.992 60.776 24.264 58.344 26.504 55.912C28.808 53.416 30.984 51.016 33.032 48.712C35.08 46.408 36.936 44.328 38.6 42.472H53.096C50.984 44.904 48.744 47.432 46.376 50.056C44.008 52.68 41.576 55.336 39.08 58.024C36.584 60.648 34.056 63.272 31.496 65.896C29 68.52 26.536 71.016 24.104 73.384C26.792 75.432 29.512 77.832 32.264 80.584C35.08 83.272 37.832 86.184 40.52 89.32C43.208 92.392 45.768 95.624 48.2 99.016C50.696 102.344 52.968 105.672 55.016 109H40.712Z" fill="black"/>
<path d="M74.6353 109H63.0193V58.792H74.6353V109ZM75.8833 44.104C75.8833 46.28 75.1793 48.008 73.7713 49.288C72.3633 50.568 70.6993 51.208 68.7793 51.208C66.7953 51.208 65.0993 50.568 63.6913 49.288C62.2833 48.008 61.5793 46.28 61.5793 44.104C61.5793 41.864 62.2833 40.104 63.6913 38.824C65.0993 37.544 66.7953 36.904 68.7793 36.904C70.6993 36.904 72.3633 37.544 73.7713 38.824C75.1793 40.104 75.8833 41.864 75.8833 44.104Z" fill="black"/>
<path d="M102.319 109C99.1185 102.408 95.8225 94.856 92.4305 86.344C89.1025 77.768 86.0625 68.584 83.3105 58.792H95.6945C96.3985 61.608 97.1985 64.648 98.0945 67.912C99.0545 71.112 100.047 74.344 101.071 77.608C102.159 80.808 103.247 83.944 104.335 87.016C105.487 90.024 106.543 92.744 107.503 95.176C108.463 92.744 109.486 90.024 110.575 87.016C111.663 83.944 112.719 80.808 113.743 77.608C114.83 74.344 115.855 71.112 116.815 67.912C117.775 64.648 118.607 61.608 119.311 58.792H131.311C128.559 68.584 125.487 77.768 122.095 86.344C118.767 94.856 115.503 102.408 112.303 109H102.319Z" fill="black"/>
<path d="M136.077 84.136C136.077 79.72 136.717 75.848 137.997 72.52C139.341 69.192 141.101 66.44 143.277 64.264C145.453 62.024 147.949 60.36 150.765 59.272C153.581 58.12 156.461 57.544 159.405 57.544C166.317 57.544 171.693 59.688 175.533 63.976C179.437 68.264 181.389 74.664 181.389 83.176C181.389 83.816 181.357 84.552 181.293 85.384C181.293 86.152 181.261 86.856 181.197 87.496H148.077C148.397 91.528 149.805 94.664 152.301 96.904C154.861 99.08 158.541 100.168 163.341 100.168C166.157 100.168 168.717 99.912 171.021 99.4C173.389 98.888 175.245 98.344 176.589 97.768L178.125 107.272C177.485 107.592 176.589 107.944 175.437 108.328C174.349 108.648 173.069 108.936 171.597 109.192C170.189 109.512 168.653 109.768 166.989 109.96C165.325 110.152 163.629 110.248 161.901 110.248C157.485 110.248 153.645 109.608 150.381 108.328C147.117 106.984 144.429 105.16 142.317 102.856C140.205 100.488 138.637 97.736 137.613 94.6C136.589 91.4 136.077 87.912 136.077 84.136ZM169.773 78.952C169.773 77.352 169.549 75.848 169.101 74.44C168.653 72.968 167.981 71.72 167.085 70.696C166.253 69.608 165.197 68.776 163.917 68.2C162.701 67.56 161.229 67.24 159.501 67.24C157.709 67.24 156.141 67.592 154.797 68.296C153.453 68.936 152.301 69.8 151.341 70.888C150.445 71.976 149.741 73.224 149.229 74.632C148.717 76.04 148.365 77.48 148.173 78.952H169.773Z" fill="black"/>
<path d="M206.281 100.648C209.353 100.648 211.593 100.296 213.001 99.592C214.409 98.824 215.113 97.544 215.113 95.752C215.113 94.088 214.345 92.712 212.809 91.624C211.337 90.536 208.873 89.352 205.417 88.072C203.305 87.304 201.353 86.504 199.561 85.672C197.833 84.776 196.329 83.752 195.049 82.6C193.769 81.448 192.745 80.072 191.977 78.472C191.273 76.808 190.921 74.792 190.921 72.424C190.921 67.816 192.616 64.2 196.008 61.576C199.4 58.888 204.009 57.544 209.833 57.544C212.777 57.544 215.593 57.832 218.281 58.408C220.969 58.92 222.985 59.432 224.329 59.944L222.217 69.352C220.937 68.776 219.305 68.264 217.321 67.816C215.337 67.304 213.033 67.048 210.409 67.048C208.041 67.048 206.12 67.464 204.648 68.296C203.176 69.064 202.441 70.28 202.441 71.944C202.441 72.776 202.569 73.512 202.825 74.152C203.145 74.792 203.657 75.4 204.361 75.976C205.065 76.488 205.993 77.032 207.145 77.608C208.297 78.12 209.705 78.664 211.368 79.24C214.121 80.264 216.457 81.288 218.377 82.312C220.297 83.272 221.865 84.392 223.081 85.672C224.361 86.888 225.289 88.296 225.865 89.896C226.441 91.496 226.729 93.416 226.729 95.656C226.729 100.456 224.937 104.104 221.353 106.6C217.833 109.032 212.777 110.248 206.185 110.248C201.769 110.248 198.217 109.864 195.529 109.096C192.841 108.392 190.953 107.816 189.865 107.368L191.881 97.672C193.609 98.376 195.657 99.048 198.025 99.688C200.457 100.328 203.209 100.648 206.281 100.648Z" fill="black"/>
<path d="M237.004 45.544L248.62 43.624V58.792H266.476V68.488H248.62V88.936C248.62 92.968 249.26 95.848 250.54 97.576C251.82 99.304 253.995 100.168 257.067 100.168C259.179 100.168 261.036 99.944 262.636 99.496C264.3 99.048 265.612 98.632 266.572 98.248L268.492 107.464C267.148 108.04 265.388 108.616 263.212 109.192C261.036 109.832 258.476 110.152 255.532 110.152C251.948 110.152 248.94 109.672 246.508 108.712C244.14 107.752 242.252 106.376 240.844 104.584C239.436 102.728 238.444 100.52 237.868 97.96C237.292 95.336 237.004 92.36 237.004 89.032V45.544Z" fill="black"/>
<rect x="286" y="10" width="8" height="37" rx="2" fill="#2538E5"/>
<rect x="299" y="23" width="8" height="37" rx="2" fill="#2538E5"/>
<rect x="312" width="8" height="37" rx="2" fill="#2538E5"/>
<circle cx="69" cy="44" r="9" fill="#2538E5"/>
</svg>
